<svg height='100px' width='100px'  fill="#aa1414" xmlns="http://www.w3.org/2000/svg" xmlns:xlink="http://www.w3.org/1999/xlink" version="1.1" x="0px" y="0px" viewBox="0 0 100 100" enable-background="new 0 0 100 100" xml:space="preserve"><g display="none"><g display="inline"><line fill="#aa1414" stroke="#aa1414" stroke-miterlimit="10" x1="0" y1="0" x2="0" y2="100"></line><line fill="#aa1414" stroke="#aa1414" stroke-miterlimit="10" x1="5" y1="0" x2="5" y2="100"></line><line fill="#aa1414" stroke="#aa1414" stroke-miterlimit="10" x1="10" y1="0" x2="10" y2="100"></line><line fill="#aa1414" stroke="#aa1414" stroke-miterlimit="10" x1="15" y1="0" x2="15" y2="100"></line><line fill="#aa1414" stroke="#aa1414" stroke-miterlimit="10" x1="20" y1="0" x2="20" y2="100"></line><line fill="#aa1414" stroke="#aa1414" stroke-miterlimit="10" x1="25" y1="0" x2="25" y2="100"></line><line fill="#aa1414" stroke="#aa1414" stroke-miterlimit="10" x1="30" y1="0" x2="30" y2="100"></line><line fill="#aa1414" stroke="#aa1414" stroke-miterlimit="10" x1="35" y1="0" x2="35" y2="100"></line><line fill="#aa1414" stroke="#aa1414" stroke-miterlimit="10" x1="40" y1="0" x2="40" y2="100"></line><line fill="#aa1414" stroke="#aa1414" stroke-miterlimit="10" x1="45" y1="0" x2="45" y2="100"></line><line fill="#aa1414" stroke="#aa1414" stroke-miterlimit="10" x1="50" y1="0" x2="50" y2="100"></line><line fill="#aa1414" stroke="#aa1414" stroke-miterlimit="10" x1="55" y1="0" x2="55" y2="100"></line><line fill="#aa1414" stroke="#aa1414" stroke-miterlimit="10" x1="60" y1="0" x2="60" y2="100"></line><line fill="#aa1414" stroke="#aa1414" stroke-miterlimit="10" x1="65" y1="0" x2="65" y2="100"></line><line fill="#aa1414" stroke="#aa1414" stroke-miterlimit="10" x1="70" y1="0" x2="70" y2="100"></line><line fill="#aa1414" stroke="#aa1414" stroke-miterlimit="10" x1="75" y1="0" x2="75" y2="100"></line><line fill="#aa1414" stroke="#aa1414" stroke-miterlimit="10" x1="80" y1="0" x2="80" y2="100"></line><line fill="#aa1414" stroke="#aa1414" stroke-miterlimit="10" x1="85" y1="0" x2="85" y2="100"></line><line fill="#aa1414" stroke="#aa1414" stroke-miterlimit="10" x1="90" y1="0" x2="90" y2="100"></line><line fill="#aa1414" stroke="#aa1414" stroke-miterlimit="10" x1="95" y1="0" x2="95" y2="100"></line><line fill="#aa1414" stroke="#aa1414" stroke-miterlimit="10" x1="100" y1="0" x2="100" y2="100"></line></g><g display="inline"><line fill="#aa1414" stroke="#aa1414" stroke-miterlimit="10" x1="100" y1="0" x2="0" y2="0"></line><line fill="#aa1414" stroke="#aa1414" stroke-miterlimit="10" x1="100" y1="5" x2="0" y2="5"></line><line fill="#aa1414" stroke="#aa1414" stroke-miterlimit="10" x1="100" y1="10" x2="0" y2="10"></line><line fill="#aa1414" stroke="#aa1414" stroke-miterlimit="10" x1="100" y1="15" x2="0" y2="15"></line><line fill="#aa1414" stroke="#aa1414" stroke-miterlimit="10" x1="100" y1="20" x2="0" y2="20"></line><line fill="#aa1414" stroke="#aa1414" stroke-miterlimit="10" x1="100" y1="25" x2="0" y2="25"></line><line fill="#aa1414" stroke="#aa1414" stroke-miterlimit="10" x1="100" y1="30" x2="0" y2="30"></line><line fill="#aa1414" stroke="#aa1414" stroke-miterlimit="10" x1="100" y1="35" x2="0" y2="35"></line><line fill="#aa1414" stroke="#aa1414" stroke-miterlimit="10" x1="100" y1="40" x2="0" y2="40"></line><line fill="#aa1414" stroke="#aa1414" stroke-miterlimit="10" x1="100" y1="45" x2="0" y2="45"></line><line fill="#aa1414" stroke="#aa1414" stroke-miterlimit="10" x1="100" y1="50" x2="0" y2="50"></line><line fill="#aa1414" stroke="#aa1414" stroke-miterlimit="10" x1="100" y1="55" x2="0" y2="55"></line><line fill="#aa1414" stroke="#aa1414" stroke-miterlimit="10" x1="100" y1="60" x2="0" y2="60"></line><line fill="#aa1414" stroke="#aa1414" stroke-miterlimit="10" x1="100" y1="65" x2="0" y2="65"></line><line fill="#aa1414" stroke="#aa1414" stroke-miterlimit="10" x1="100" y1="70" x2="0" y2="70"></line><line fill="#aa1414" stroke="#aa1414" stroke-miterlimit="10" x1="100" y1="75" x2="0" y2="75"></line><line fill="#aa1414" stroke="#aa1414" stroke-miterlimit="10" x1="100" y1="80" x2="0" y2="80"></line><line fill="#aa1414" stroke="#aa1414" stroke-miterlimit="10" x1="100" y1="85" x2="0" y2="85"></line><line fill="#aa1414" stroke="#aa1414" stroke-miterlimit="10" x1="100" y1="90" x2="0" y2="90"></line><line fill="#aa1414" stroke="#aa1414" stroke-miterlimit="10" x1="100" y1="95" x2="0" y2="95"></line><line fill="#aa1414" stroke="#aa1414" stroke-miterlimit="10" x1="100" y1="100" x2="0" y2="100"></line></g></g><g display="none"><path display="inline" d="M27.634,70.185c-13.667-13.668-13.668-35.829,0-49.498c13.669-13.668,35.83-13.668,49.498,0   L27.634,70.185z"></path><g display="inline"><defs><path id="b" d="M77.132,20.687c13.668,13.668,13.668,35.829,0,49.498c-13.669,13.668-35.829,13.668-49.498,0     L77.132,20.687z"></path></defs><clipPath id="a"><use xlink:href="#b" overflow="visible"></use></clipPath><g clip-path="url(#a)"><path fill="none" stroke="#aa1414" stroke-width="2" stroke-miterlimit="10" d="M43.601,85.164     c1.494-1.647,2.646-3.561,3.359-5.536c0.146-0.397,1.083-1.086,1.817-1.379c-0.283-0.283-4.622-4.038,0.583-9.242l2.885-2.886     c4.843-4.843,8.195-1.501,8.195-1.501c0.191-0.691,0.677-1.416,1.062-1.685c6.1-4.221,8.426-10.312,1.26-18.671L81.568,24.91"></path><path fill="none" stroke="#aa1414" stroke-width="1.8333" stroke-miterlimit="10" d="M45.822,87.387     c1.494-1.647,2.646-3.561,3.36-5.536c0.146-0.397,1.082-1.086,1.816-1.38c-0.282-0.282-4.621-4.038,0.583-9.242l2.885-2.886     c4.844-4.843,8.195-1.5,8.195-1.5c0.192-0.692,0.677-1.416,1.063-1.685c6.1-4.222,8.425-10.313,1.26-18.671l18.455-19.004"></path><path fill="none" stroke="#aa1414" stroke-width="1.6667" stroke-miterlimit="10" d="M48.045,89.608     c1.494-1.647,2.64-3.563,3.359-5.536c0.146-0.397,1.083-1.086,1.817-1.379c-0.283-0.283-4.622-4.038,0.583-9.242l2.885-2.886     c4.843-4.843,8.195-1.501,8.195-1.501c0.191-0.691,0.676-1.417,1.062-1.685c6.091-4.233,8.426-10.312,1.26-18.671l18.106-18.653"></path><path fill="none" stroke="#aa1414" stroke-width="1.5" stroke-miterlimit="10" d="M50.268,91.83     c1.494-1.646,2.639-3.562,3.359-5.535c0.146-0.397,1.083-1.086,1.816-1.379c-0.282-0.283-4.621-4.038,0.584-9.242l2.885-2.887     c4.843-4.842,8.195-1.5,8.195-1.5c0.191-0.691,0.676-1.416,1.062-1.685c6.1-4.222,8.426-10.312,1.26-18.671l17.755-18.304"></path><path fill="none" stroke="#aa1414" stroke-width="1.3333" stroke-miterlimit="10" d="M52.489,94.053     c1.494-1.646,2.646-3.561,3.36-5.536c0.146-0.397,1.082-1.085,1.816-1.379c-0.283-0.283-4.621-4.038,0.583-9.242l2.885-2.886     c4.843-4.843,8.195-1.5,8.195-1.5c0.191-0.692,0.676-1.417,1.062-1.686c6.088-4.238,8.426-10.312,1.26-18.67l17.404-17.953"></path><path fill="none" stroke="#aa1414" stroke-width="1.1667" stroke-miterlimit="10" d="M54.712,96.275     c1.494-1.647,2.64-3.563,3.359-5.536c0.146-0.397,1.083-1.086,1.817-1.379c-0.283-0.283-4.622-4.038,0.582-9.243l2.886-2.885     c4.843-4.843,8.195-1.501,8.195-1.501c0.191-0.691,0.676-1.417,1.062-1.685c6.091-4.233,8.426-10.313,1.26-18.671l17.054-17.603"></path><path fill="none" stroke="#aa1414" stroke-miterlimit="10" d="M56.934,98.497c1.494-1.647,2.639-3.563,3.359-5.536     c0.146-0.397,1.083-1.086,1.817-1.379c-0.283-0.283-4.622-4.038,0.583-9.242l2.885-2.886c4.844-4.843,8.195-1.501,8.195-1.501     c0.191-0.691,0.677-1.416,1.062-1.684c6.1-4.222,8.426-10.313,1.26-18.672l16.704-17.252"></path><path fill="none" stroke="#aa1414" stroke-width="0.8333" stroke-miterlimit="10" d="M59.156,100.72     c1.494-1.647,2.64-3.563,3.359-5.536c0.146-0.397,1.083-1.086,1.817-1.379c-0.283-0.283-4.622-4.038,0.583-9.242l2.885-2.886     c4.843-4.843,8.195-1.501,8.195-1.501c0.191-0.691,0.676-1.417,1.062-1.685c6.091-4.233,8.426-10.312,1.26-18.671l16.354-16.902"></path><path fill="none" stroke="#aa1414" stroke-width="0.6667" stroke-miterlimit="10" d="M61.378,102.942     c1.494-1.647,2.646-3.562,3.36-5.537c0.146-0.397,1.082-1.085,1.816-1.379c-0.283-0.282-4.621-4.038,0.583-9.242l2.886-2.886     c4.842-4.843,8.194-1.5,8.194-1.5c0.191-0.691,0.676-1.417,1.062-1.686c6.088-4.238,8.426-10.312,1.261-18.67l16.002-16.552"></path><path fill="none" stroke="#aa1414" stroke-width="0.5" stroke-miterlimit="10" d="M63.601,105.164     c1.494-1.647,2.646-3.561,3.359-5.536c0.146-0.397,1.083-1.086,1.817-1.379c-0.283-0.283-4.622-4.038,0.583-9.242l2.885-2.886     c4.843-4.843,8.195-1.501,8.195-1.501c0.191-0.691,0.677-1.416,1.062-1.685c6.1-4.221,8.426-10.312,1.26-18.671l15.652-16.201"></path></g></g><polygon display="inline" fill="#aa1414" points="59.444,23.55 59.688,24.628 60.475,25.406 59.396,25.649 58.62,26.436    58.377,25.358 57.59,24.581 58.668,24.336  "></polygon><polygon display="inline" fill="#aa1414" points="32.873,31.296 33.641,32.09 34.718,32.344 33.923,33.113 33.67,34.188    32.901,33.395 31.825,33.141 32.619,32.372  "></polygon><polygon display="inline" fill="#aa1414" points="27.205,27.891 28.348,28.82 29.813,28.984 28.885,30.129 28.721,31.593    27.576,30.665 26.112,30.5 27.041,29.355  "></polygon><path display="inline" fill="#aa1414" d="M36.664,22.309c0-1.642,0.803-3.086,2.024-3.998c-0.008,0-0.016-0.002-0.024-0.002   c-2.761,0-5,2.238-5,5s2.239,5,5,5c1.12,0,2.143-0.381,2.976-1.002C38.891,27.293,36.664,25.062,36.664,22.309z"></path><path display="inline" fill="#aa1414" d="M52.503,26.436c-0.637,0-1.153,0.518-1.153,1.153c0,0.639,0.517,1.154,1.153,1.154   c0.636,0,1.153-0.516,1.153-1.154v-4.614c0-0.076-0.038-0.146-0.099-0.19c-0.063-0.043-0.142-0.053-0.215-0.026l-3.691,1.386   c-0.088,0.032-0.148,0.12-0.148,0.215v3.717c-0.195-0.151-0.428-0.255-0.693-0.255c-0.636,0-1.153,0.516-1.153,1.154   c0,0.637,0.518,1.154,1.153,1.154c0.637,0,1.153-0.518,1.153-1.154v-4.456l3.233-1.211v3.384   C53.001,26.541,52.768,26.436,52.503,26.436z"></path><path display="inline" fill="#aa1414" d="M65.802,18.677l-0.346-0.201l-1.622,2.782c-0.081-0.197-0.209-0.376-0.407-0.492   c-0.478-0.278-1.089-0.117-1.367,0.361c-0.277,0.477-0.117,1.089,0.36,1.368c0.478,0.278,1.089,0.117,1.367-0.36L65.802,18.677z"></path><path display="inline" fill="#aa1414" d="M59.337,15.146l-0.977,3.643c-0.151-0.197-0.353-0.361-0.612-0.43   c-0.625-0.167-1.266,0.203-1.433,0.828c-0.168,0.624,0.202,1.267,0.827,1.434c0.626,0.168,1.267-0.204,1.435-0.828l1.212-4.526   L59.337,15.146z"></path><path display="inline" fill="#aa1414" d="M48.064,15.808c-0.225,0.045-0.43,0.133-0.609,0.252c-0.49-0.341-1.112-0.492-1.745-0.366   c-0.632,0.126-1.149,0.503-1.472,1.006c-0.213-0.041-0.435-0.044-0.658,0c-0.929,0.185-1.531,1.088-1.348,2.016   c0.186,0.928,1.088,1.532,2.016,1.347c0.225-0.045,0.43-0.133,0.608-0.252c0.492,0.341,1.113,0.492,1.746,0.366   c0.632-0.126,1.149-0.503,1.473-1.006c0.211,0.041,0.434,0.044,0.657,0c0.929-0.185,1.531-1.088,1.347-2.016   S48.992,15.623,48.064,15.808z"></path><path display="inline" fill="#aa1414" d="M30.67,37.936c0-1.262-1.023-2.285-2.287-2.285c-0.645,0-1.225,0.269-1.641,0.698   c-0.199-0.081-0.416-0.128-0.645-0.128c-0.857,0-1.563,0.633-1.688,1.456c-1.139,0.13-2.027,1.086-2.027,2.259   c0,1.262,1.023,2.285,2.287,2.285c0.645,0,1.225-0.269,1.641-0.698c0.199,0.081,0.416,0.128,0.645,0.128   c0.857,0,1.563-0.633,1.688-1.456C29.781,40.064,30.67,39.108,30.67,37.936z"></path><path display="inline" fill="#aa1414" d="M36.875,39.256c-0.268,0.384-0.992,0.871-1.684,1.063c0,0,3.342,3.352-1.502,8.193   l-2.885,2.886c-5.205,5.205-8.96,0.864-9.242,0.582c-0.294,0.734-0.981,1.672-1.381,1.816c-8.931,3.229-16.584,15.406-4.236,27.755   c12.348,12.348,24.524,4.692,27.753-4.239c0.146-0.396,1.083-1.086,1.816-1.379c-0.283-0.283-4.622-4.038,0.584-9.242l2.885-2.886   c4.842-4.842,8.194-1.501,8.194-1.501c0.191-0.69,0.677-1.416,1.062-1.685c6.589-4.559,8.783-11.297-0.641-20.722   C48.174,30.473,41.435,32.668,36.875,39.256"></path><polygon display="inline" fill="#aa1414" points="46.946,54.98 42.516,50.551 76.138,18.065 79.431,21.359  "></polygon></g><g display="none"><g display="inline"><rect x="75.883" y="17.182" transform="matrix(-0.7072 -0.707 0.707 -0.7072 119.6886 84.9937)" width="3.124" height="1.061"></rect><path d="M74.524,14.792c-0.713,0.712-0.293,1.918,0.314,2.526c0.608,0.607,1.174,0.389,1.888-0.324    c0.711-0.712,0.915-1.263,0.309-1.871C76.426,14.515,75.237,14.079,74.524,14.792"></path><rect x="78.967" y="14.097" transform="matrix(-0.7072 -0.707 0.707 -0.7072 127.136 81.9091)" width="3.124" height="1.061"></rect><path d="M77.608,11.708c-0.713,0.712-0.292,1.917,0.315,2.525c0.608,0.607,1.173,0.389,1.887-0.324    c0.712-0.712,0.915-1.263,0.309-1.871C79.51,11.431,78.321,10.995,77.608,11.708"></path></g><g display="inline"><rect x="81.57" y="20.554" transform="matrix(0.7073 0.707 -0.707 0.7073 39.2416 -52.5974)" width="3.123" height="1.062"></rect><path d="M86.051,24.006c-0.713,0.712-1.917,0.292-2.525-0.315c-0.607-0.608-0.39-1.173,0.324-1.886    c0.712-0.712,1.263-0.917,1.871-0.308C86.328,22.104,86.764,23.293,86.051,24.006"></path><rect x="84.654" y="17.469" transform="matrix(0.7072 0.707 -0.707 0.7072 37.9718 -55.686)" width="3.122" height="1.062"></rect><path d="M89.136,20.921c-0.713,0.712-1.918,0.292-2.525-0.315c-0.608-0.609-0.391-1.174,0.323-1.887    c0.712-0.712,1.263-0.917,1.871-0.308C89.412,19.02,89.848,20.208,89.136,20.921"></path></g><path display="inline" d="M37.966,40.347c-0.268,0.384-0.993,0.871-1.684,1.063c0,0,3.342,3.352-1.502,8.194l-2.885,2.885   c-5.205,5.206-8.96,0.865-9.242,0.583c-0.294,0.733-0.982,1.672-1.382,1.815c-8.93,3.229-16.583,15.407-4.235,27.755   s24.524,4.693,27.752-4.238c0.146-0.397,1.083-1.086,1.817-1.379c-0.283-0.283-4.622-4.038,0.583-9.242l2.885-2.886   c4.843-4.843,8.195-1.501,8.195-1.501c0.191-0.691,0.677-1.416,1.062-1.685c6.588-4.559,8.783-11.298-0.642-20.722   C49.265,31.563,42.525,33.759,37.966,40.347"></path><polygon display="inline" points="79.431,23.54 76.138,20.247 85.843,11.321 88.477,13.956  "></polygon><polygon display="inline" points="86.607,16.383 83.303,13.081 85.618,11.098 88.638,14.117  "></polygon><path display="inline" fill="#aa1414" d="M24.805,69.797l5.075,5.075l-0.253,0.155c-3.589,2.202-7.03,4.703-10.277,7.467   c-0.666-0.715-1.376-1.463-1.887-2.7c2.617-3.063,5.05-6.351,7.169-9.724L24.805,69.797z"></path><polygon display="inline" points="46.946,57.161 42.516,52.731 76.138,20.247 79.431,23.54  "></polygon><polygon display="inline" points="87.819,16.473 86.626,15.279 87.688,14.032 88.881,15.227  "></polygon><polygon display="inline" points="83.325,11.979 84.521,13.173 85.767,12.111 84.572,10.917  "></polygon><path display="inline" fill="#aa1414" d="M20.664,84.089c-1.387-1.871-4.146-4.297-3.106-5.955   c2.478-3.953,5.093-12.092-5.864-14.238c0,0-4.895,7.041,2.844,16.543c0.36,0.442,1.979,2.526,4.926,4.851L20.664,84.089z"></path><line display="inline" fill="#aa1414" stroke="#aa1414" stroke-linecap="round" stroke-miterlimit="10" x1="28.118" y1="73.11" x2="78.446" y2="22.782"></line><line display="inline" fill="#aa1414" stroke="#aa1414" stroke-linecap="round" stroke-miterlimit="10" x1="26.576" y1="71.568" x2="76.904" y2="21.24"></line><line display="inline" fill="#aa1414" stroke="#aa1414" stroke-width="2" stroke-linecap="round" stroke-miterlimit="10" x1="31.899" y1="63.916" x2="35.755" y2="67.771"></line><g display="inline"><g><path fill="#aa1414" stroke="#aa1414" stroke-linecap="round" stroke-miterlimit="10" d="M32.034,58.969     c0.363-1.008-0.443-1.627-1.236-1.729c-2.936-0.375-4.093,6.365-7.695,5.79c-1.44-0.23-2.21-1.572-1.305-2.89"></path><circle fill="#aa1414" cx="22.268" cy="60.48" r="1.149"></circle><circle fill="#aa1414" cx="31.515" cy="58.691" r="1.149"></circle></g><g><path fill="#aa1414" stroke="#aa1414" stroke-linecap="round" stroke-miterlimit="10" d="M40.708,67.642     c1.007-0.363,1.627,0.444,1.728,1.236c0.376,2.935-6.364,4.093-5.789,7.695c0.23,1.441,1.571,2.21,2.89,1.305"></path><circle fill="#aa1414" cx="39.195" cy="77.408" r="1.149"></circle><circle fill="#aa1414" cx="40.985" cy="68.162" r="1.149"></circle></g></g></g><g><path d="M88.805,18.412c-0.489-0.489-0.942-0.447-1.471-0.044l-1.555-1.555l0.611-0.647l0.217,0.217l0.53-0.592l0.682,0.682   l1.062-1.246l-0.652-0.653l0.409-0.457l-0.161-0.161l-2.634-2.634l-0.001,0l-0.224-0.224l-0.466,0.399l-0.58-0.58l-1.247,1.062   l0.584,0.583l-0.606,0.519l0.301,0.3l-1.86,1.71l-1.581-1.582c0.402-0.529,0.444-0.982-0.043-1.47   c-0.609-0.608-1.798-1.044-2.511-0.331c-0.713,0.712-0.292,1.917,0.315,2.525c0.49,0.489,0.953,0.437,1.487,0.027l1.551,1.55   l-2.433,2.236l-1.452-1.453c0.402-0.529,0.445-0.982-0.042-1.471c-0.609-0.608-1.798-1.044-2.511-0.332   c-0.713,0.712-0.293,1.918,0.314,2.526c0.49,0.489,0.953,0.436,1.488,0.027l1.421,1.421l-1.61,1.48L56.637,39.088   c-8.358-7.167-14.449-4.84-18.671,1.259c-0.268,0.384-0.993,0.871-1.684,1.063c0,0,3.342,3.352-1.502,8.194l-2.885,2.885   c-5.205,5.206-8.96,0.865-9.242,0.583c-0.294,0.733-0.982,1.672-1.382,1.815c-4.021,1.454-7.777,4.728-9.571,9.011   c10.948,2.148,8.334,10.284,5.857,14.236c-0.304,0.484-0.277,1.036-0.061,1.619c2.604-3.051,5.025-6.324,7.135-9.683l0.173-0.273   l1.418,1.418l5.781-5.781l-0.812-0.811c-0.391-0.391-0.391-1.023,0-1.414s1.023-0.391,1.414,0l0.811,0.811l43.134-43.133   c0.195-0.195,0.512-0.195,0.707,0s0.195,0.512,0,0.707L34.124,64.727l0.835,0.836l43.134-43.134c0.195-0.195,0.512-0.195,0.707,0   s0.195,0.512,0,0.707L35.666,66.27l0.796,0.795c0.391,0.391,0.391,1.023,0,1.414c-0.195,0.195-0.451,0.293-0.707,0.293   s-0.512-0.098-0.707-0.293l-0.796-0.795l-5.78,5.78l1.408,1.408l-0.253,0.155c-3.587,2.201-7.027,4.701-10.273,7.463   c0.47,0.556,0.939,1.098,1.311,1.599l-0.932,0.931c11.38,8.834,22.063,1.664,25.056-6.616c0.146-0.397,1.083-1.086,1.817-1.379   c-0.283-0.283-4.622-4.038,0.583-9.242l2.885-2.886c4.843-4.843,8.195-1.501,8.195-1.501c0.191-0.691,0.677-1.416,1.062-1.685   c6.1-4.221,8.426-10.312,1.26-18.671l18.841-19.5l2.624-2.78l1.444,1.443c-0.41,0.534-0.463,0.997,0.026,1.487   c0.608,0.607,1.813,1.028,2.525,0.315c0.713-0.713,0.277-1.902-0.33-2.51c-0.489-0.49-0.942-0.447-1.471-0.043l-1.466-1.466   l2.266-2.401l1.533,1.533c-0.41,0.534-0.463,0.997,0.027,1.488c0.607,0.607,1.813,1.027,2.525,0.315   C89.848,20.208,89.412,19.02,88.805,18.412z M32.127,59.664c-0.539,0.339-1.248,0.176-1.586-0.361   c-0.326-0.518-0.178-1.19,0.314-1.54c-0.041-0.009-0.08-0.021-0.122-0.027c-1.07-0.146-1.985,1.141-2.938,2.497   c-1.103,1.57-2.342,3.332-4.252,3.333c-0.168,0-0.341-0.014-0.52-0.042c-0.902-0.145-1.63-0.671-1.946-1.408   c-0.243-0.567-0.208-1.206,0.068-1.813c0.05-0.316,0.22-0.612,0.512-0.796c0.536-0.338,1.247-0.175,1.585,0.363   c0.336,0.536,0.174,1.245-0.363,1.584c-0.286,0.18-0.618,0.208-0.921,0.123c0.013,0.048,0.019,0.098,0.038,0.144   c0.18,0.421,0.623,0.725,1.186,0.814c1.586,0.264,2.663-1.266,3.796-2.877c1.081-1.539,2.203-3.125,3.884-2.915   c0.66,0.086,1.232,0.429,1.531,0.919c0.108,0.178,0.201,0.433,0.219,0.742C32.734,58.877,32.561,59.392,32.127,59.664z    M40.018,72.698c-1.61,1.132-3.132,2.202-2.877,3.796c0.09,0.563,0.394,1.006,0.813,1.186c0.047,0.021,0.098,0.025,0.146,0.039   c-0.085-0.303-0.058-0.636,0.122-0.921c0.338-0.537,1.049-0.701,1.584-0.363c0.538,0.337,0.701,1.048,0.363,1.584   c-0.182,0.288-0.47,0.458-0.779,0.512c-0.332,0.153-0.674,0.236-1.009,0.236c-0.282,0-0.56-0.056-0.821-0.168   c-0.736-0.315-1.263-1.044-1.407-1.946c-0.353-2.211,1.583-3.572,3.291-4.772c1.355-0.953,2.636-1.853,2.496-2.938   c-0.005-0.041-0.018-0.08-0.026-0.12c-0.351,0.491-1.021,0.64-1.54,0.314c-0.536-0.338-0.699-1.048-0.36-1.586   c0.271-0.435,0.785-0.607,1.258-0.485c0.311,0.018,0.565,0.11,0.744,0.22c0.49,0.3,0.833,0.872,0.917,1.53   C43.147,70.498,41.557,71.616,40.018,72.698z M33.545,66.977l-5.78,5.78l-0.835-0.835l5.781-5.781L33.545,66.977z"></path></g></svg>